<svg id="Layer_1" enable-background="new 0 0 512 512" height="512" viewBox="0 0 512 512" width="512" xmlns="http://www.w3.org/2000/svg"><g><g fill="#fff"><path d="m391 121-37.58 80.52-31.42-11.52-11.52-31.42z"/><path d="m201.52 158.58-11.52 31.42-31.42 11.52-37.58-80.52z"/><path d="m201.52 353.42-80.52 37.58 37.58-80.52 31.42 11.52z"/><path d="m391 391-80.52-37.58 11.52-31.42 31.42-11.52z"/></g><path d="m322 190-66 66-66-66 66-180z" fill="#99ebfa"/><path d="m502 256-180 66-66-66 66-66z" fill="#b8ecbc"/><path d="m256 256-66 66-180-66 180-66z" fill="#ffee80"/><path d="m322 322-66 180-66-180 66-66z" fill="#ff7d97"/><g><circle cx="289.255" cy="100.7" r="10"/><path d="m505.442 246.611-138.355-50.73 32.975-70.652c1.778-3.811.983-8.327-1.99-11.3-2.975-2.973-7.49-3.769-11.301-1.99l-70.652 32.974-1.981-5.403c-1.439-3.93-5.21-6.56-9.39-6.56-1.17 0-2.33.2-3.44.61-5.18 1.9-7.85 7.66-5.95 12.83l15.051 41.06-54.409 54.407-54.411-54.411 54.409-148.396 8.38 22.84c1.44 3.93 5.21 6.57 9.39 6.56 1.17 0 2.33-.2 3.44-.61 5.17-1.9 7.84-7.65 5.95-12.83l-17.77-48.45c-1.439-3.92-5.21-6.56-9.39-6.56s-7.95 2.64-9.391 6.56l-50.729 138.352-70.649-32.973c-3.812-1.779-8.327-.983-11.301 1.99-2.974 2.974-3.769 7.49-1.99 11.3l32.975 70.652-138.355 50.73c-3.94 1.445-6.558 5.194-6.558 9.389s2.618 7.944 6.558 9.389l138.355 50.73-32.975 70.652c-1.778 3.811-.983 8.327 1.99 11.3 1.918 1.917 4.477 2.929 7.074 2.929 1.431 0 2.873-.307 4.227-.939l70.651-32.974 50.73 138.355c1.444 3.939 5.193 6.558 9.389 6.558s7.944-2.619 9.389-6.558l50.73-138.355 70.652 32.974c1.354.632 2.796.939 4.227.939h.136c5.471 0 9.887-4.514 9.887-10 0-1.737-.442-3.371-1.222-4.795l-32.711-70.086 138.355-50.73c3.939-1.444 6.558-5.193 6.558-9.389 0-4.195-2.618-7.944-6.558-9.389zm-135.135-104.918-22.065 47.277-18.448-6.764-6.764-18.448zm-181.339 22.065-6.765 18.45-18.445 6.763-22.065-47.276zm-1.523 37.83 54.412 54.412-54.412 54.412-148.397-54.412zm-45.752 168.718 22.065-47.276 18.447 6.764 6.764 18.448zm114.307 102.646-54.412-148.397 54.412-54.412 54.412 54.412zm92.241-149.922 22.065 47.277-47.277-22.065 6.764-18.448zm-23.686-12.618-54.412-54.412 54.412-54.412 148.397 54.412z"/></g></g></svg>