<svg id="Layer_1" enable-background="new 0 0 512 512" height="512" viewBox="0 0 512 512" width="512" xmlns="http://www.w3.org/2000/svg"><g><path d="m362.5 102h-264l264-92z" fill="#b8ecbc"/><path d="m98.5 102h315v400h-315z" fill="#fff" transform="matrix(-1 0 0 -1 512 604)"/><path d="m98.5 270h315v232h-315z" fill="#aab1c7"/><g fill="#b8ecbc"><path d="m162.973 334.473h65.054v65.054h-65.054z" transform="matrix(.707 -.707 .707 .707 -202.248 245.731)"/><path d="m377.5 502h-90l-63.754-61 46-46z"/><path d="m167.5 293-46 46-23-22.754v-46.246h46.246z"/></g><path d="m338.5 270-58.791 58.976-46.185-46.184 12.976-12.792z" fill="#ffee80"/><path d="m413.5 459-105.729-101.962 86.729-87.038h19z" fill="#b8ecbc"/><path d="m216.5 502h-118v-113.322z" fill="#ffee80"/><g><circle cx="413.5" cy="177" r="10"/><path d="m420.57 94.93c-1.86-1.86-4.44-2.93-7.07-2.93h-41v-82c0-3.238-1.568-6.276-4.208-8.152-2.64-1.875-6.025-2.357-9.083-1.291l-264 92c-.096.033-.165.069-.238.104-1.319.5-2.537 1.264-3.541 2.268-1.86 1.86-2.93 4.44-2.93 7.07v400c0 5.191 3.956 9.456 9.017 9.95.326.033.654.05.983.05h315c5.523 0 10-4.477 10-10v-279.999c0-5.51-4.49-10-10-10s-10 4.49-10 10v38h-295v-148h295v20c0 5.51 4.49 10 10 10s10-4.49 10-10v-30c0-2.63-1.07-5.21-2.93-7.07zm-312.07 317.216 83.15 79.854h-83.15zm183.013 79.854-53.467-51.158 31.725-31.725 83.466 82.883zm90.109 0-104.829-104.096c-3.91-3.882-10.222-3.871-14.118.024l-46 46c-1.902 1.903-2.958 4.491-2.928 7.182s1.142 5.255 3.086 7.115l45.751 43.775h-42.06l-112.024-107.583v-44.212l5.967 5.903c1.949 1.928 4.49 2.891 7.033 2.891 2.56 0 5.119-.977 7.071-2.929l46-46c3.89-3.891 3.907-10.193.038-14.104l-5.904-5.966h55.224c-.258.888-.401 1.814-.405 2.756-.009 2.665 1.045 5.223 2.929 7.107l46.184 46.184c1.876 1.875 4.419 2.929 7.071 2.929h.008c2.655-.002 5.2-1.06 7.074-2.94l55.861-56.036h27.767l-69.731 69.979c-1.892 1.899-2.943 4.478-2.916 7.158s1.128 5.238 3.058 7.099l102.671 99.013v28.751zm21.878-212v155.464l-81.471-78.568 76.623-76.896zm-89.089 0-34.714 34.822-31.98-31.98 2.883-2.842zm-173.839 0 12.824 12.962-31.934 31.934-12.962-12.824v-32.072zm17.012-188 194.916-67.925v67.925z"/><path d="m202.571 313.929c-3.905-3.905-10.237-3.905-14.143 0l-46 46c-3.905 3.905-3.905 10.237 0 14.143l46 46c1.953 1.953 4.512 2.929 7.071 2.929s5.119-.976 7.071-2.929l46-46c3.905-3.905 3.905-10.237 0-14.143zm-7.071 84.929-31.858-31.858 31.858-31.858 31.858 31.858z"/><path d="m278.146 152.334c-1.685-4.456-5.824-7.333-10.548-7.333-.003 0-.007 0-.01 0-4.728.004-8.867 2.89-10.546 7.353-.027.072-.053.144-.078.216l-21.402 61.127c-1.825 5.213.921 10.918 6.134 12.743 1.094.383 2.208.565 3.305.565 4.13 0 7.996-2.579 9.438-6.698l2.986-8.528h20.179l2.949 8.501c1.811 5.217 7.506 7.98 12.726 6.17 5.218-1.811 7.98-7.508 6.17-12.726l-21.208-61.129c-.031-.089-.062-.175-.095-.261zm-13.72 39.442 3.133-8.949 3.105 8.949z"/><path d="m202.322 154.136c-1.028-5.078-5.357-8.827-10.526-9.118-5.17-.288-9.89 2.949-11.481 7.879-.037.114-.072.229-.104.344l-8.875 31.304-9.214-31.401c-.034-.117-.071-.234-.109-.35-1.641-4.916-6.4-8.115-11.563-7.764-5.168.344-9.459 4.141-10.433 9.232-.007.037-.014.075-.021.112l-10.838 60.376c-.976 5.436 2.64 10.633 8.076 11.609 5.432.975 10.633-2.64 11.609-8.076l4.383-24.42 7.335 24.998c.035.119.072.237.111.354 1.559 4.663 5.896 7.785 10.804 7.785h.06c4.933-.025 9.266-3.199 10.783-7.896.037-.114.071-.229.104-.345l7.079-24.967 4.674 24.591c1.031 5.426 6.265 8.986 11.691 7.957 5.426-1.031 8.988-6.266 7.957-11.691l-11.479-60.395c-.008-.039-.015-.079-.023-.118z"/><path d="m334 145c-5.523 0-10 4.477-10 10v62c0 5.523 4.477 10 10 10s10-4.477 10-10v-12.065c2.531-.013 5.106-.023 7.131-.023 18.124 0 32.869-13.438 32.869-29.956 0-16.517-14.745-29.956-32.869-29.956zm30 29.956c0 5.304-6.014 9.956-12.869 9.956-2.031 0-4.601.01-7.131.022v-19.934h7.131c6.855 0 12.869 4.652 12.869 9.956z"/></g></g></svg>