<svg id="Layer_1" enable-background="new 0 0 512 512" height="512" viewBox="0 0 512 512" width="512" xmlns="http://www.w3.org/2000/svg"><path d="m256.081 10c-99.41 0-180 80.59-180 180 0 110 180 312 180 312s180-202 180-312c0-99.41-80.59-180-180-180zm0 310c-71.8 0-130-58.2-130-130s58.2-130 130-130 130 58.2 130 130-58.2 130-130 130z" fill="#ff7d97"/><path d="m256.081 106 24.721 49.377 55.279 7.918-40 38.434 9.442 54.271-49.442-25.623-49.443 25.623 9.443-54.271-40-38.434 55.278-7.918z" fill="#ffee80"/><g><path d="m428.811 110.76c-4.96-10.8-10.98-21.2-17.9-30.91-6.86-9.62-14.66-18.66-23.19-26.86-8.55-8.21-17.89-15.65-27.79-22.12-10-6.54-20.66-12.15-31.67-16.68-22.91-9.41-47.2-14.19-72.18-14.19-25.65 0-50.53 5.03-73.96 14.93-11.26 4.77-22.11 10.66-32.27 17.52-10.06 6.8-19.52 14.6-28.12 23.2s-16.4 18.06-23.2 28.12c-6.86 10.16-12.75 21.02-17.52 32.27-9.9 23.43-14.93 48.31-14.93 73.96.04 14.27 2.79 30.39 8.17 47.92 4.82 15.72 11.68 32.61 20.98 51.64 11.77 23.98 27.15 50.41 45.72 78.54 14.76 22.37 31.67 46.01 50.24 70.27 17.292 22.575 32.62 41.226 43.084 53.63h-60.194c-5.523 0-10 4.477-10 10s4.477 10 10 10h164c5.523 0 10-4.477 10-10s-4.477-10-10-10h-60.207c11.535-13.681 28.94-34.889 48.127-60.24 19.95-26.38 37.79-51.84 53.02-75.68 19.2-30.05 34.53-57.95 45.57-82.93 1.08-2.44 1.14-5.16.17-7.65-.96-2.49-2.84-4.46-5.28-5.53-1.29-.57-2.64-.86-4.04-.86-3.96 0-7.55 2.34-9.15 5.97-24.02 54.47-65.59 114.14-96.23 154.61-17.38 22.96-33.2 42.35-43.4 54.57-3.66 4.38-7.22 8.59-10.58 12.5-14.98-17.45-53.67-63.74-90.16-117.34-23.7-34.79-42.46-66.74-55.77-94.97-15.81-33.4-24.14-62.61-24.07-84.45 0-45.4 17.69-88.09 49.79-120.21 32.119-32.1 74.809-49.79 120.21-49.79h.03c91.37 0 165.97 71.46 169.82 162.69.23 5.52 4.89 9.8 10.41 9.57 5.51-.23 9.8-4.9 9.57-10.41-1.05-24.77-6.8-48.69-17.1-71.09z"/><path d="m355.071 91c-6.33-6.33-13.3-12.08-20.71-17.09-7.49-5.06-15.49-9.4-23.78-12.91-17.26-7.3-35.6-11-54.5-11s-37.24 3.7-54.5 11c-8.29 3.51-16.29 7.85-23.78 12.91-7.41 5.01-14.38 10.76-20.72 17.09-6.33 6.34-12.08 13.31-17.09 20.72-5.06 7.49-9.4 15.49-12.91 23.78-7.3 17.26-11 35.6-11 54.5s3.7 37.24 11 54.5c3.51 8.29 7.85 16.29 12.91 23.78 5.01 7.41 10.76 14.38 17.09 20.71 6.34 6.34 13.31 12.09 20.72 17.1 7.49 5.05 15.49 9.4 23.78 12.91 17.26 7.3 35.6 11 54.5 11s37.24-3.7 54.5-11c8.29-3.51 16.29-7.86 23.78-12.91 7.41-5.01 14.38-10.76 20.71-17.1 6.34-6.33 12.09-13.3 17.1-20.71 5.05-7.49 9.4-15.49 12.91-23.78 7.3-17.26 11-35.6 11-54.5s-3.7-37.24-11-54.5c-3.51-8.29-7.86-16.29-12.91-23.78-5.011-7.41-10.761-14.38-17.1-20.72zm-14.141 183.85c-22.67 22.66-52.81 35.15-84.85 35.15s-62.18-12.49-84.85-35.15c-22.66-22.67-35.15-52.81-35.15-84.85s12.49-62.18 35.15-84.86c22.67-22.65 52.81-35.13 84.85-35.14 32.04.01 62.18 12.49 84.85 35.14 22.66 22.68 35.15 52.82 35.15 84.86s-12.489 62.18-35.15 84.85z"/><path d="m287.401 146.22-22.378-44.697c-1.695-3.385-5.156-5.523-8.942-5.523s-7.247 2.138-8.942 5.523l-22.378 44.697-50.098 7.176c-3.784.542-6.929 3.194-8.101 6.833s-.167 7.628 2.59 10.277l36.165 34.75-8.531 49.03c-.651 3.744.875 7.534 3.94 9.78s7.139 2.562 10.513.813l44.842-23.238 44.842 23.238c1.449.751 3.028 1.122 4.6 1.122 2.087 0 4.164-.653 5.913-1.934 3.065-2.247 4.592-6.036 3.94-9.78l-8.531-49.03 36.165-34.75c2.756-2.649 3.762-6.638 2.59-10.277s-4.316-6.291-8.101-6.833zm1.751 48.299c-2.397 2.304-3.493 5.649-2.923 8.925l5.985 34.396-31.532-16.341c-1.442-.748-3.022-1.122-4.601-1.122s-3.159.374-4.601 1.122l-31.532 16.341 5.985-34.396c.57-3.276-.526-6.621-2.923-8.925l-25.219-24.231 34.987-5.011c3.245-.465 6.056-2.491 7.524-5.422l15.779-31.517 15.779 31.517c1.468 2.931 4.279 4.957 7.524 5.422l34.987 5.011z"/><circle cx="430.695" cy="226.77" r="10"/></g></svg>